<svg xmlns="http://www.w3.org/2000/svg"  viewBox="0 0 64 64" width="512px" height="512px"><radialGradient id="cHEkj9yjwQTRqHUK4XUnra" cx="30.167" cy="32.573" r="40.161" gradientUnits="userSpaceOnUse" spreadMethod="reflect"><stop offset="0" stop-color="#afeeff"/><stop offset=".193" stop-color="#bbf1ff"/><stop offset=".703" stop-color="#d7f8ff"/><stop offset="1" stop-color="#e1faff"/></radialGradient><path fill="url(#cHEkj9yjwQTRqHUK4XUnra)" d="M59,31.065l1.302,0c1.896,0,3.595-1.42,3.693-3.313c0.105-2.018-1.501-3.687-3.495-3.687 l-2.402,0c-0.982,0-1.892-0.664-2.065-1.631C56.011,22.308,56,22.183,56,22.061c0.002-1.084,0.867-1.966,1.944-1.995 c1.511-0.041,2.864-1.146,3.035-2.649c0.014-0.12,0.02-0.238,0.02-0.355c-0.001-1.655-1.344-2.997-3-2.997h-2.302 c-0.216,0-2.431-0.019-2.64-0.054C53.039,14.007,53.019,14.004,53,14v0.065V23H32v-9h12.858c0.218-0.844,0.268-1.755-0.473-2.86 C43.466,9.769,41.873,9,40.223,9L35.5,9C34.672,9,34,8.328,34,7.5C34,6.672,34.672,6,35.5,6l0.331,0 c1.625,0,3.08-1.217,3.165-2.839C39.086,1.43,37.711,0,36,0L7.169,0c-1.625,0-3.08,1.217-3.165,2.839C3.914,4.569,5.289,6,7,6h7.5 C15.328,6,16,6.672,16,7.5C16,8.328,15.328,9,14.5,9H6c-2.209,0-4,1.791-4,4l0,0v0c0,2.209,1.791,4,4,4h13v6h-7l1,10.554 c-0.536,0.401-0.917,0.99-0.987,1.688c-0.092,0.921,0.318,1.75,0.987,2.253v2.522c-0.014,0.074-0.021,0.149-0.013,0.225 C13.137,41.739,11.966,43,10.5,43l-7.33,0c-1.493,0-2.88,1.011-3.126,2.483c-0.122,0.731,0.022,1.423,0.343,2.005 C0.923,48.458,2.004,49,3.112,49h1.581c1.188,0,2.104,0.664,2.275,1.635C6.989,50.758,7,50.878,7,50.997 C7.001,52.103,6.106,53,5.001,53H5c-1.135,0-2.236,0.602-2.699,1.638C1.311,56.852,2.905,59,5,59h31c1.657,0,3-1.343,3-3v0 c0-1.657-1.343-3-3-3h-5V43l23,0.065l4.83,0c1.57,0,3.084-1.271,3.165-2.839c0.09-1.73-1.286-3.161-2.996-3.161h-0.013 c-0.006,0-0.011,0-0.017,0c-0.777,0-1.539-0.254-2.078-0.768c-0.17-0.162-0.318-0.35-0.438-0.564 C55.166,33.414,56.809,31.065,59,31.065z"/><radialGradient id="cHEkj9yjwQTRqHUK4XUnrb" cx="30.167" cy="39.333" r="41.484" gradientUnits="userSpaceOnUse" spreadMethod="reflect"><stop offset="0" stop-color="#afeeff"/><stop offset=".193" stop-color="#bbf1ff"/><stop offset=".703" stop-color="#d7f8ff"/><stop offset="1" stop-color="#e1faff"/></radialGradient><path fill="url(#cHEkj9yjwQTRqHUK4XUnrb)" d="M4.5,40C5.881,40,7,38.881,7,37.5C7,36.119,5.881,35,4.5,35S2,36.119,2,37.5 C2,38.881,3.119,40,4.5,40z"/><linearGradient id="cHEkj9yjwQTRqHUK4XUnrc" x1="32" x2="32" y1="55" y2="20" gradientUnits="userSpaceOnUse" spreadMethod="reflect"><stop offset="0" stop-color="#ffc662"/><stop offset=".004" stop-color="#ffc662"/><stop offset=".609" stop-color="#ffc582"/><stop offset="1" stop-color="#ffc491"/><stop offset="1" stop-color="#ffc491"/></linearGradient><path fill="url(#cHEkj9yjwQTRqHUK4XUnrc)" d="M9,50V20h46v30c0,2.761-2.239,5-5,5H14C11.239,55,9,52.761,9,50z"/><linearGradient id="cHEkj9yjwQTRqHUK4XUnrd" x1="32" x2="32" y1="23" y2="10" gradientUnits="userSpaceOnUse" spreadMethod="reflect"><stop offset="0" stop-color="#ff634d"/><stop offset=".208" stop-color="#fd6464"/><stop offset=".522" stop-color="#fc6582"/><stop offset=".793" stop-color="#fa6694"/><stop offset=".989" stop-color="#fa669a"/><stop offset="1" stop-color="#fa669a"/></linearGradient><path fill="url(#cHEkj9yjwQTRqHUK4XUnrd)" d="M55,14.8V23H9v-8.2c0-2.653,2.166-4.8,4.842-4.8h36.316C52.834,10,55,12.147,55,14.8"/><linearGradient id="cHEkj9yjwQTRqHUK4XUnre" x1="21.5" x2="21.5" y1="20" y2="10" gradientUnits="userSpaceOnUse" spreadMethod="reflect"><stop offset="0" stop-color="#ff5840"/><stop offset=".007" stop-color="#ff5840"/><stop offset=".989" stop-color="#fa528c"/><stop offset="1" stop-color="#fa528c"/></linearGradient><path fill="url(#cHEkj9yjwQTRqHUK4XUnre)" d="M24.655,10h-6.311C16.928,10.995,16,12.638,16,14.5c0,3.036,2.464,5.5,5.5,5.5 s5.5-2.464,5.5-5.5C27,12.638,26.072,10.995,24.655,10z"/><linearGradient id="cHEkj9yjwQTRqHUK4XUnrf" x1="21.5" x2="21.5" y1="6" y2="17" gradientUnits="userSpaceOnUse" spreadMethod="reflect"><stop offset="0" stop-color="#a4a4a4"/><stop offset=".63" stop-color="#7f7f7f"/><stop offset="1" stop-color="#6f6f6f"/><stop offset="1" stop-color="#6f6f6f"/></linearGradient><path fill="url(#cHEkj9yjwQTRqHUK4XUnrf)" d="M21.5,17L21.5,17c-1.375,0-2.5-1.125-2.5-2.5v-6C19,7.125,20.125,6,21.5,6h0 C22.875,6,24,7.125,24,8.5v6C24,15.875,22.875,17,21.5,17z"/><linearGradient id="cHEkj9yjwQTRqHUK4XUnrg" x1="42.5" x2="42.5" y1="20" y2="10" gradientUnits="userSpaceOnUse" spreadMethod="reflect"><stop offset="0" stop-color="#ff5840"/><stop offset=".007" stop-color="#ff5840"/><stop offset=".989" stop-color="#fa528c"/><stop offset="1" stop-color="#fa528c"/></linearGradient><path fill="url(#cHEkj9yjwQTRqHUK4XUnrg)" d="M45.655,10h-6.311C37.928,10.995,37,12.638,37,14.5c0,3.036,2.464,5.5,5.5,5.5 s5.5-2.464,5.5-5.5C48,12.638,47.072,10.995,45.655,10z"/><linearGradient id="cHEkj9yjwQTRqHUK4XUnrh" x1="42.5" x2="42.5" y1="6" y2="17" gradientUnits="userSpaceOnUse" spreadMethod="reflect"><stop offset="0" stop-color="#a4a4a4"/><stop offset=".63" stop-color="#7f7f7f"/><stop offset="1" stop-color="#6f6f6f"/><stop offset="1" stop-color="#6f6f6f"/></linearGradient><path fill="url(#cHEkj9yjwQTRqHUK4XUnrh)" d="M42.5,17L42.5,17c-1.375,0-2.5-1.125-2.5-2.5v-6C40,7.125,41.125,6,42.5,6h0 C43.875,6,45,7.125,45,8.5v6C45,15.875,43.875,17,42.5,17z"/><path fill="#ffb86a" d="M39,40.504c0,1.381,1.12,2.499,2.5,2.498l1.497-0.001C44.655,42.999,46,44.343,46,46v0 c0,1.657-1.343,3-3,3h-4c-1.657,0-3,1.343-3,3v0c0,1.657,1.343,3,3,3h11c2.761,0,5-2.239,5-5V38l-13.503,0.006 C40.118,38.006,39,39.124,39,40.504L39,40.504z"/><linearGradient id="cHEkj9yjwQTRqHUK4XUnri" x1="17.5" x2="17.5" y1="54.125" y2="21.871" gradientUnits="userSpaceOnUse" spreadMethod="reflect"><stop offset="0" stop-color="#ffce76"/><stop offset=".004" stop-color="#ffce76"/><stop offset=".605" stop-color="#ffcd92"/><stop offset="1" stop-color="#ffcca0"/><stop offset="1" stop-color="#ffcca0"/></linearGradient><path fill="url(#cHEkj9yjwQTRqHUK4XUnri)" d="M9,34h8.893c0.996,0,1.92-0.681,2.08-1.664C20.176,31.083,19.215,30,18,30h-1.5 c-0.828,0-1.5-0.672-1.5-1.5s0.672-1.5,1.5-1.5h7.393c0.996,0,1.92-0.681,2.08-1.664C26.176,24.083,25.215,23,24,23H9V34z"/><path fill="#ffb977" d="M46 28A3 3 0 1 0 46 34A3 3 0 1 0 46 28Z"/><linearGradient id="cHEkj9yjwQTRqHUK4XUnrj" x1="32" x2="32" y1="47" y2="29" gradientUnits="userSpaceOnUse" spreadMethod="reflect"><stop offset="0" stop-color="#ffe79f"/><stop offset=".119" stop-color="#ffe9a6"/><stop offset="1" stop-color="#fff5d5"/></linearGradient><path fill="url(#cHEkj9yjwQTRqHUK4XUnrj)" d="M24,37h-4c-1.105,0-2-0.895-2-2v-4c0-1.105,0.895-2,2-2h4c1.105,0,2,0.895,2,2v4 C26,36.105,25.105,37,24,37z M36,35v-4c0-1.105-0.895-2-2-2h-4c-1.105,0-2,0.895-2,2v4c0,1.105,0.895,2,2,2h4 C35.105,37,36,36.105,36,35z M46,35v-4c0-1.105-0.895-2-2-2h-4c-1.105,0-2,0.895-2,2v4c0,1.105,0.895,2,2,2h4 C45.105,37,46,36.105,46,35z M26,45v-4c0-1.105-0.895-2-2-2h-4c-1.105,0-2,0.895-2,2v4c0,1.105,0.895,2,2,2h4 C25.105,47,26,46.105,26,45z M36,45v-4c0-1.105-0.895-2-2-2h-4c-1.105,0-2,0.895-2,2v4c0,1.105,0.895,2,2,2h4 C35.105,47,36,46.105,36,45z M46,45v-4c0-1.105-0.895-2-2-2h-4c-1.105,0-2,0.895-2,2v4c0,1.105,0.895,2,2,2h4 C45.105,47,46,46.105,46,45z"/><g><path fill="#fff" d="M52 42A10 10 0 1 0 52 62A10 10 0 1 0 52 42Z"/><linearGradient id="cHEkj9yjwQTRqHUK4XUnrk" x1="52" x2="52" y1="64" y2="40" gradientUnits="userSpaceOnUse" spreadMethod="reflect"><stop offset="0" stop-color="#155cde"/><stop offset=".625" stop-color="#2289e7"/><stop offset="1" stop-color="#289fec"/></linearGradient><path fill="url(#cHEkj9yjwQTRqHUK4XUnrk)" d="M52,40c-6.627,0-12,5.373-12,12s5.373,12,12,12s12-5.373,12-12S58.627,40,52,40z M52,60 c-4.418,0-8-3.582-8-8s3.582-8,8-8s8,3.582,8,8S56.418,60,52,60z"/><linearGradient id="cHEkj9yjwQTRqHUK4XUnrl" x1="53.5" x2="53.5" y1="46" y2="57" gradientUnits="userSpaceOnUse" spreadMethod="reflect"><stop offset="0" stop-color="#919191"/><stop offset="1" stop-color="#6f6f6f"/></linearGradient><path fill="url(#cHEkj9yjwQTRqHUK4XUnrl)" d="M56.707,55.293l-2.781-2.781C53.969,52.347,54,52.178,54,52c0-0.738-0.405-1.376-1-1.723V47 c0-0.553-0.447-1-1-1s-1,0.447-1,1v3.277c-0.595,0.346-1,0.984-1,1.723c0,1.105,0.895,2,2,2c0.178,0,0.347-0.031,0.512-0.074 l2.781,2.781C55.488,56.902,55.744,57,56,57s0.512-0.098,0.707-0.293C57.098,56.316,57.098,55.684,56.707,55.293z"/></g></svg>